<?xml version="1.0"?>
<svg width="64" height="64" xmlns="http://www.w3.org/2000/svg" xmlns:svg="http://www.w3.org/2000/svg">

 <g>
  <title>Layer 1</title>
  <g id="svg_1">
   <path id="svg_2" fill="#073642" d="m23,30.5c0,-1.93 -1.57,-3.5 -3.5,-3.5s-3.5,1.57 -3.5,3.5l0,3c0,0.827 -0.673,1.5 -1.5,1.5s-1.5,-0.673 -1.5,-1.5l0,-3c0,-0.827 0.673,-1.5 1.5,-1.5l0.5,0l0,-2l-0.5,0c-1.93,0 -3.5,1.57 -3.5,3.5l0,0.5l-2,0l0,2l2,0l0,0.5c0,1.93 1.57,3.5 3.5,3.5s3.5,-1.57 3.5,-3.5l0,-3c0,-0.827 0.673,-1.5 1.5,-1.5s1.5,0.673 1.5,1.5l0,3c0,0.827 -0.673,1.5 -1.5,1.5l-0.5,0l0,2l0.5,0c1.93,0 3.5,-1.57 3.5,-3.5l0,-0.5l2,0l0,-2l-2,0l0,-0.5z"/>
   <path id="svg_3" fill="#073642" d="m17,20c-6.617,0 -12,5.382999 -12,12s5.383,12 12,12s12,-5.382999 12,-12s-5.382999,-12 -12,-12zm0,22c-5.514,0 -10,-4.486 -10,-10s4.486,-10 10,-10s10,4.486 10,10s-4.486,10 -10,10z"/>
   <polygon id="svg_4" fill="#073642" points="7,50 5,50 5,59 14,59 14,57 7,57  "/>
   <polygon id="svg_5" fill="#073642" points="27,57 20,57 20,59 29,59 29,50 27,50  "/>
   <polygon id="svg_6" fill="#073642" points="7,7 14,7 14,5 5,5 5,14 7,14  "/>
   <polygon id="svg_7" fill="#073642" points="20,7 27,7 27,14 29,14 29,5 20,5  "/>
   <polygon id="svg_8" fill="#073642" points="42,7 42,14 44,14 44,5 35,5 35,7  "/>
   <path id="svg_9" fill="#073642" d="m52.5,45l-0.5,0l0,-2l-2,0l0,2l-0.5,0c-1.93,0 -3.5,1.57 -3.5,3.5s1.57,3.5 3.5,3.5l3,0c0.827,0 1.5,0.673 1.5,1.5s-0.673,1.5 -1.5,1.5l-3,0c-0.827,0 -1.5,-0.673 -1.5,-1.5l0,-0.5l-2,0l0,0.5c0,1.93 1.57,3.5 3.5,3.5l0.5,0l0,2l2,0l0,-2l0.5,0c1.93,0 3.5,-1.57 3.5,-3.5s-1.57,-3.5 -3.5,-3.5l-3,0c-0.827,0 -1.5,-0.673 -1.5,-1.5s0.673,-1.5 1.5,-1.5l3,0c0.827,0 1.5,0.673 1.5,1.5l0,0.5l2,0l0,-0.5c0,-1.93 -1.57,-3.5 -3.5,-3.5z"/>
   <path id="svg_10" fill="#073642" d="m63,40c0,-6.617001 -5.382999,-12 -12,-12c-1.036999,0 -2.039001,0.146 -3,0.395l0,-27.395l-15,0l-1,0l-31,0l0,62l31,0l1,0l15,0l0,-0.395c0.960999,0.249001 1.963001,0.395 3,0.395c6.617001,0 12,-5.382999 12,-12c0,-1.992001 -0.494999,-3.868999 -1.358002,-5.523998c0.875,-1.698002 1.358002,-3.572002 1.358002,-5.476002zm-2,0c0,1.194 -0.234001,2.375 -0.653999,3.492001c-2.201,-2.735001 -5.57,-4.492001 -9.346001,-4.492001l-1.5,0c-0.827,0 -1.5,-0.673 -1.5,-1.5s0.673,-1.5 1.5,-1.5l3,0c0.827,0 1.5,0.673 1.5,1.5l0,0.5l2,0l0,-0.5c0,-1.93 -1.57,-3.5 -3.5,-3.5l-0.5,0l0,-2l-2,0l0,2l-0.5,0c-1.93,0 -3.5,1.57 -3.5,3.5c0,0.863998 0.326,1.645 0.847,2.256001c-2.053001,0.760998 -3.844002,2.058998 -5.193001,3.736c-0.419998,-1.117001 -0.653999,-2.298 -0.653999,-3.492001c0,-5.514 4.486,-10 10,-10s10,4.486 10,10zm-28,1.949001l0,-11.449001c0,-0.827 0.673,-1.5 1.5,-1.5s1.5,0.673 1.5,1.5l0,3c0,0.827 -0.673,1.5 -1.5,1.5l-0.5,0l0,2l0.5,0c1.93,0 3.5,-1.57 3.5,-3.5l0,-0.5l2,0l0,-2l-2,0l0,-0.5c0,-1.93 -1.57,-3.5 -3.5,-3.5c-0.539001,0 -1.043999,0.132999 -1.5,0.351l0,-5.299999c5.046001,0.503 9,4.772999 9,9.948999c0,0.032001 -0.002998,0.063 -0.005001,0.094002c-1.663998,1.892998 -2.740997,4.307999 -2.947998,6.968998c-1.652,1.652 -3.757,2.660999 -6.047001,2.886002zm13,-38.949001l0,26.105c-0.754002,0.348 -1.464001,0.771 -2.125,1.261c-0.756001,-5.518999 -5.27,-9.85 -10.875,-10.316l0,-17.049999l13,0zm-15,58l-28,0l0,-58l28,0l0,58zm2,0l0,-17.050999c2.237,-0.182999 4.334,-0.979 6.118999,-2.310001c0.186001,1.336002 0.617001,2.629002 1.239002,3.836002c-0.863003,1.655998 -1.358002,3.532997 -1.358002,5.524998c0,2.187 0.598,4.231998 1.624001,6l-5.624001,0l0,2l7.081001,0c0.681,0.757999 1.448997,1.435001 2.299999,2l-11.381001,0zm18,0c-5.514,0 -10,-4.486 -10,-10s4.486,-10 10,-10s10,4.486 10,10s-4.486,10 -10,10z"/>
  </g>
 </g>
</svg>