<?xml version="1.0"?>
<svg width="481.8897" height="340.1574" xmlns="http://www.w3.org/2000/svg" xmlns:svg="http://www.w3.org/2000/svg">
 <defs>
  <clipPath id="clip1">
   <path id="svg_1" d="m0,340.15625l481.890625,0l0,-340.15625l-481.890625,0l0,340.15625zm0,0"/>
  </clipPath>
 </defs>
 <g>
  <title>Layer 1</title>
  <g id="surface0">
   <g id="svg_2" clip-rule="nonzero" clip-path="url(#clip1)">
    <path id="svg_3" fill-rule="nonzero" fill="#002b36" d="m0,340.15625l113.386719,-170.078125l-113.386719,-170.078125l85.039063,0l113.386719,170.078125l-113.386719,170.078125l-85.039063,0zm0,0"/>
    <path id="svg_4" fill-rule="nonzero" fill="#073642" d="m113.386719,340.15625l113.386719,-170.078125l-113.386719,-170.078125l85.039063,0l226.769531,340.15625l-85.039063,0l-70.863281,-106.296875l-70.867188,106.296875l-85.039063,0zm0,0"/>
    <path id="svg_5" fill-rule="nonzero" fill="#002b36" d="m387.402344,240.945313l-37.792969,-56.691406l132.28125,-0.003906l0,56.695313l-94.488281,0zm0,0"/>
    <path id="svg_6" fill-rule="nonzero" fill="#002b36" d="m330.710938,155.90625l-37.796875,-56.691406l188.976563,-0.003906l0,56.695313l-151.179688,0zm0,0"/>
   </g>
  </g>
 </g>
</svg>