<?xml version="1.0"?>
<svg width="297" height="297" xmlns="http://www.w3.org/2000/svg" xmlns:svg="http://www.w3.org/2000/svg">

 <g>
  <title>Layer 1</title>
  <g id="svg_1">
   <path fill="#073642" id="svg_2" d="m286.933014,262.428986c5.559998,0 10.066986,-4.507996 10.066986,-10.067993l0,-207.720993c0,-5.559998 -4.507996,-10.068001 -10.066986,-10.068001l-242.256016,0c-5.559998,0 -10.066998,4.508003 -10.066998,10.068001l0,24.553001l-24.543,0c-5.559,-0.000999 -10.067,4.506996 -10.067,10.068001l0,173.100006c0,5.560989 4.508,10.068008 10.067,10.068008l276.866014,0l0,-0.000031zm-266.797014,-173.100983l14.474001,0l0,152.964996l-14.474001,0l0,-152.964996zm256.728014,152.964996l-222.119015,0l0,-187.585999l222.119015,0l0,187.585999z"/>
   <path fill="#073642" id="svg_3" d="m165.804001,193.188995l86.520004,0c5.559998,0 10.066986,-4.507996 10.066986,-10.067001l0,-86.549995c0,-5.559998 -4.507996,-10.068001 -10.066986,-10.068001l-86.520004,0c-5.559998,0 -10.067001,4.509003 -10.067001,10.068001l0,86.549004c-0.001007,5.559998 4.507004,10.067993 10.067001,10.067993zm10.067993,-86.548996l66.383011,0l0,66.412994l-66.383011,0l0,-66.412994z"/>
   <path fill="#073642" id="svg_4" d="m79.283997,227.807999l173.039001,0c5.559998,0 10.067017,-4.507996 10.067017,-10.067993c0,-5.560013 -4.508026,-10.067001 -10.067017,-10.067001l-173.039001,0c-5.560997,0 -10.067993,4.507996 -10.067993,10.067001c0,5.559998 4.507996,10.067993 10.067993,10.067993z"/>
   <path fill="#073642" id="svg_5" d="m79.283997,106.639999l51.912994,0c5.559998,0 10.067017,-4.507996 10.067017,-10.067001c0,-5.559998 -4.508011,-10.068001 -10.067017,-10.068001l-51.912994,0c-5.560997,0 -10.067993,4.509003 -10.067993,10.068001c0,5.559006 4.507996,10.067001 10.067993,10.067001z"/>
   <path fill="#073642" id="svg_6" d="m79.283997,141.259995l51.912994,0c5.559998,0 10.067017,-4.508011 10.067017,-10.067001c0,-5.561005 -4.508011,-10.068001 -10.067017,-10.068001l-51.912994,0c-5.560997,0 -10.067993,4.507996 -10.067993,10.068001c0,5.559006 4.507996,10.067001 10.067993,10.067001z"/>
   <path fill="#073642" id="svg_7" d="m79.283997,175.876007l51.912994,0c5.559998,0 10.067017,-4.507996 10.067017,-10.067993c0,-5.559998 -4.508011,-10.067001 -10.067017,-10.067001l-51.912994,0c-5.560997,0 -10.067993,4.507996 -10.067993,10.067001c0,5.559982 4.507996,10.067993 10.067993,10.067993z"/>
  </g>
  <g id="svg_8"/>
  <g id="svg_9"/>
  <g id="svg_10"/>
  <g id="svg_11"/>
  <g id="svg_12"/>
  <g id="svg_13"/>
  <g id="svg_14"/>
  <g id="svg_15"/>
  <g id="svg_16"/>
  <g id="svg_17"/>
  <g id="svg_18"/>
  <g id="svg_19"/>
  <g id="svg_20"/>
  <g id="svg_21"/>
  <g id="svg_22"/>
 </g>
</svg>