<?xml version="1.0"?>
<svg width="1024" height="1024" xmlns="http://www.w3.org/2000/svg" xmlns:svg="http://www.w3.org/2000/svg">

 <g>
  <title>Layer 1</title>
  <path id="svg_1" d="m512.793579,1017.914734c-278.970703,0 -505.121052,-225.815979 -505.121052,-504.374146s226.150349,-504.37416 505.121052,-504.37416s505.121155,225.815932 505.121155,504.37416s-226.150391,504.374146 -505.121155,504.374146zm-107.283447,-58.071106c27.247498,-20.815063 53.406281,-44.856445 77.8461,-72.002258c-12.494659,-14.277771 -24.504669,-29.33374 -35.975433,-45.133667l-46.47464,116.014771c1.53125,0.382874 3.065887,0.754333 4.603973,1.121155zm106.613464,-106.415955c15.760803,-20.299438 30.59552,-42.005249 44.327881,-65.027588l-43.657898,-108.984314l-44.193634,110.32019c13.50827,22.524841 28.068817,43.786438 43.523651,63.691711zm26.416992,31.768066c25.206543,28.32959 52.269714,53.361328 80.509216,74.898987c1.882813,-0.445251 3.758789,-0.904236 5.632446,-1.372253l-48.818176,-121.86377c-11.888245,16.919983 -24.352234,33.049377 -37.323486,48.337036zm30.780945,83.792419c-20.448853,-15.87384 -40.258545,-33.347046 -59.191101,-52.426392c-18.297668,18.905579 -37.390625,36.264099 -57.06488,52.029907c19.551392,2.534363 39.485016,3.854309 59.729248,3.854309c19.139526,-0.000061 38.000366,-1.188171 56.526733,-3.457825zm-56.527954,-914.35297c-253.822144,0 -459.584953,205.45966 -459.584953,458.905399c0,202.71637 131.644783,374.713135 314.2192,435.453674l118.025055,-353.551575c-34.346344,-11.427673 -59.120575,-43.76593 -59.120575,-81.902161c0,-47.68045 38.710236,-86.333466 86.461273,-86.333466c47.751099,0 86.461487,38.653015 86.461487,86.333466c0,38.13623 -24.774353,70.474487 -59.120667,81.902161l118.024963,353.551514c182.575623,-60.740479 314.219177,-232.737244 314.219177,-435.453613c0,-253.446869 -205.762695,-458.905399 -459.584961,-458.905399zm255.81543,714.342472l-32.17804,-32.130432c57.233215,-57.14978 92.633057,-136.099548 92.633057,-223.306641s-35.399841,-166.15686 -92.633118,-223.306641l32.178101,-32.130402c65.468506,65.371765 105.961426,155.682281 105.961426,255.437042c0,99.753662 -40.49292,190.065247 -105.961426,255.437073zm-131.131775,-130.937866c31.909485,-31.862366 51.645142,-75.879333 51.645142,-124.499207c0,-48.619904 -19.736816,-92.636902 -51.645142,-124.499237l32.180237,-32.13266c40.144897,40.08548 64.974915,95.463165 64.974915,156.631897c0,61.168762 -24.830017,116.546448 -64.974915,156.631897l-32.180237,-32.13269zm-281.547455,32.13269c-40.144867,-40.085449 -64.974884,-95.463135 -64.974884,-156.631897c0,-61.168732 24.830017,-116.546417 64.974884,-156.631897l32.180237,32.13266c-31.908386,31.862335 -51.645203,75.879333 -51.645203,124.499237c0,48.619873 19.736816,92.636841 51.645203,124.499207l-32.180237,32.13269zm-98.951477,98.805176c-65.468582,-65.371765 -105.962692,-155.682251 -105.962692,-255.437073c0,-99.753632 40.492966,-190.064087 105.962692,-255.437012l32.177979,32.130402c-57.233246,57.14975 -92.633026,136.100647 -92.633026,223.30661c0,87.207092 35.39978,166.15686 92.633026,223.30658l-32.177979,32.130493z" stroke-miterlimit="10" stroke="#FFFFFF" fill="#073642"/>
 </g>
</svg>